<?xml version="1.0" standalone="no"?>
<!DOCTYPE svg PUBLIC "-//W3C//DTD SVG 20010904//EN"
 "http://www.w3.org/TR/2001/REC-SVG-20010904/DTD/svg10.dtd">
<svg version="1.0" xmlns="http://www.w3.org/2000/svg"
 width="493.000000pt" height="506.000000pt" viewBox="0 0 493.000000 506.000000"
 preserveAspectRatio="xMidYMid meet">

<g transform="translate(0.000000,506.000000) scale(0.100000,-0.100000)"
fill="#000000" stroke="none">
<path d="M2060 3760 l0 -50 38 0 c241 1 679 -11 713 -20 200 -51 372 -188 462
-367 63 -127 75 -186 53 -264 -9 -33 -27 -82 -41 -108 -32 -63 -126 -149 -209
-190 -64 -32 -156 -119 -156 -147 0 -7 22 -34 50 -61 30 -29 94 -121 165 -237
326 -530 411 -612 670 -652 50 -8 118 -14 151 -14 56 0 62 2 68 23 14 51 8 62
-43 80 -106 37 -209 139 -381 376 -119 165 -370 553 -370 574 0 4 6 7 14 7 7
0 52 24 99 53 185 112 281 245 306 427 15 111 -7 248 -55 341 -43 84 -162 185
-264 223 -140 53 -177 56 -745 56 l-525 0 0 -50z"/>
<path d="M751 3393 l1 -308 19 75 c66 256 258 459 498 526 40 11 10 12 -237
13 l-283 1 2 -307z"/>
<path d="M1560 3680 c55 -35 90 -71 118 -125 l27 -50 6 -915 c5 -796 8 -924
22 -981 104 -424 413 -728 811 -798 83 -15 87 -13 34 15 -62 31 -111 82 -146
147 l-27 52 -6 910 c-6 997 -4 959 -68 1136 -59 161 -171 319 -301 427 -112
91 -314 179 -455 197 l-50 7 35 -22z"/>
<path d="M2594 2820 c-29 -12 -84 -77 -86 -103 -5 -74 15 -123 62 -157 74 -53
181 -27 219 54 12 23 21 55 21 70 0 40 -37 104 -73 126 -33 21 -105 26 -143
10z"/>
</g>
</svg>
